<svg width="2672" height="390" xmlns="http://www.w3.org/2000/svg" xmlns:xlink="http://www.w3.org/1999/xlink" xml:space="preserve" overflow="hidden"><g transform="translate(-1040 -554)"><g><rect x="1081" y="671" width="2627" height="83.9999" fill="#D9D9D9" fill-opacity="1"/><text fill="#000000" fill-opacity="1" font-family="Inter,Inter_MSFontService,sans-serif" font-style="normal" font-variant="normal" font-weight="400" font-stretch="normal" font-size="64" text-anchor="start" direction="ltr" writing-mode="lr-tb" unicode-bidi="normal" text-decoration="none" transform="matrix(1 0 0 1 1901.12 638)">Single dynamic monocular video</text><text fill="#000000" fill-opacity="1" font-family="Inter,Inter_MSFontService,sans-serif" font-style="normal" font-variant="normal" font-weight="400" font-stretch="normal" font-size="64" text-anchor="start" direction="ltr" writing-mode="lr-tb" unicode-bidi="normal" text-decoration="none" transform="matrix(1 0 0 1 2887.11 638)"> </text><rect x="1557" y="819" width="810" height="84.9999" fill="#F7BFA9" fill-opacity="1"/><text fill="#000000" fill-opacity="1" font-family="Inter,Inter_MSFontService,sans-serif" font-style="normal" font-variant="normal" font-weight="400" font-stretch="normal" font-size="55" text-anchor="start" direction="ltr" writing-mode="lr-tb" unicode-bidi="normal" text-decoration="none" transform="matrix(1 0 0 1 1787.2 882)">Target output</text><text fill="#000000" fill-opacity="1" font-family="Inter,Inter_MSFontService,sans-serif" font-style="normal" font-variant="normal" font-weight="400" font-stretch="normal" font-size="55" text-anchor="start" direction="ltr" writing-mode="lr-tb" unicode-bidi="normal" text-decoration="none" transform="matrix(1 0 0 1 2136.68 882)"> </text><path d="M1964.79 755.5 1964.79 797.132 1960.21 797.132 1960.21 755.5ZM1976.25 792.548 1962.5 820.048 1948.75 792.548Z" fill="#EB5E28" fill-rule="nonzero" fill-opacity="1"/><path d="M1557.5 654.5 1557.5 937.049" stroke="#EB5E28" stroke-width="4.58333" stroke-linecap="butt" stroke-linejoin="miter" stroke-miterlimit="8" stroke-opacity="1" fill="none" fill-rule="evenodd"/><path d="M2367.5 654.5 2367.5 937.049" stroke="#EB5E28" stroke-width="4.58333" stroke-linecap="butt" stroke-linejoin="miter" stroke-miterlimit="8" stroke-opacity="1" fill="none" fill-rule="evenodd"/><rect x="2623" y="819" width="810" height="84.9999" fill="#FFE29A" fill-opacity="1"/><text fill="#000000" fill-opacity="1" font-family="Inter,Inter_MSFontService,sans-serif" font-style="normal" font-variant="normal" font-weight="400" font-stretch="normal" font-size="55" text-anchor="start" direction="ltr" writing-mode="lr-tb" unicode-bidi="normal" text-decoration="none" transform="matrix(1 0 0 1 2850.63 882)">Training input</text><text fill="#000000" fill-opacity="1" font-family="Inter,Inter_MSFontService,sans-serif" font-style="normal" font-variant="normal" font-weight="400" font-stretch="normal" font-size="55" text-anchor="start" direction="ltr" writing-mode="lr-tb" unicode-bidi="normal" text-decoration="none" transform="matrix(1 0 0 1 3205.84 882)"> </text><path d="M3030.79 755.5 3030.79 797.132 3026.21 797.132 3026.21 755.5ZM3042.25 792.548 3028.5 820.048 3014.75 792.548Z" fill="#FFB703" fill-rule="nonzero" fill-opacity="1"/><path d="M2623.5 654.5 2623.5 937.049" stroke="#FFB703" stroke-width="4.58333" stroke-linecap="butt" stroke-linejoin="miter" stroke-miterlimit="8" stroke-opacity="1" fill="none" fill-rule="evenodd"/><path d="M3433.5 654.5 3433.5 937.049" stroke="#FFB703" stroke-width="4.58333" stroke-linecap="butt" stroke-linejoin="miter" stroke-miterlimit="8" stroke-opacity="1" fill="none" fill-rule="evenodd"/><path d="M1262 626.854 1489.28 626.855 1489.28 629.146 1262 629.146ZM1484.7 614.25 1512.2 628 1484.7 641.75Z" fill="#595959" fill-rule="nonzero" fill-opacity="1"/><text fill="#595959" fill-opacity="1" font-family="Inter,Inter_MSFontService,sans-serif" font-style="normal" font-variant="normal" font-weight="400" font-stretch="normal" font-size="55" text-anchor="start" direction="ltr" writing-mode="lr-tb" unicode-bidi="normal" text-decoration="none" transform="matrix(1 0 0 1 1107.26 643)">Time</text><text fill="#595959" fill-opacity="1" font-family="Inter,Inter_MSFontService,sans-serif" font-style="normal" font-variant="normal" font-weight="400" font-stretch="normal" font-size="55" text-anchor="start" direction="ltr" writing-mode="lr-tb" unicode-bidi="normal" text-decoration="none" transform="matrix(1 0 0 1 1236.17 643)"> </text></g></g></svg>